<?xml version="1.0" encoding="UTF-8" standalone="no"?>
<!-- Created with Inkscape (http://www.inkscape.org/) -->

<svg
   xmlns:dc="http://purl.org/dc/elements/1.1/"
   xmlns:cc="http://creativecommons.org/ns#"
   xmlns:rdf="http://www.w3.org/1999/02/22-rdf-syntax-ns#"
   xmlns:svg="http://www.w3.org/2000/svg"
   xmlns="http://www.w3.org/2000/svg"
   xmlns:sodipodi="http://sodipodi.sourceforge.net/DTD/sodipodi-0.dtd"
   xmlns:inkscape="http://www.inkscape.org/namespaces/inkscape"
   width="210mm"
   height="112mm"
   viewBox="0 0 210 112"
   version="1.1"
   id="svg4668"
   inkscape:version="0.92.3 (2405546, 2018-03-11)"
   sodipodi:docname="logo.svg">
  <defs
     id="defs4662" />
  <sodipodi:namedview
     id="base"
     pagecolor="#ffffff"
     bordercolor="#666666"
     borderopacity="1.0"
     inkscape:pageopacity="0.0"
     inkscape:pageshadow="2"
     inkscape:zoom="0.7"
     inkscape:cx="467.80921"
     inkscape:cy="107.51037"
     inkscape:document-units="mm"
     inkscape:current-layer="layer1"
     showgrid="false"
     inkscape:window-width="1920"
     inkscape:window-height="1027"
     inkscape:window-x="-8"
     inkscape:window-y="-8"
     inkscape:window-maximized="1" />
  <metadata
     id="metadata4665">
    <rdf:RDF>
      <cc:Work
         rdf:about="">
        <dc:format>image/svg+xml</dc:format>
        <dc:type
           rdf:resource="http://purl.org/dc/dcmitype/StillImage" />
        <dc:title></dc:title>
      </cc:Work>
    </rdf:RDF>
  </metadata>
  <g
     inkscape:label="Layer 1"
     inkscape:groupmode="layer"
     id="layer1"
     transform="translate(0,-185)">
    <path
       id="XMLID_31_"
       d="m 188.18909,262.56848 c 1.95076,2.26779 7.24905,2.80142 8.16863,-0.30058 0.34016,-1.27957 0.28787,-2.62916 -0.47607,-3.60834 -1.40428,-1.30054 -3.29841,-2.44604 -4.98641,-3.13208 -3.94852,-2.09696 -8.87905,-4.14907 -7.81781,-9.22101 0.57176,-2.89223 2.5948,-6.01495 5.0114,-7.24045 3.5735,-1.34983 8.52229,-0.63153 11.5346,0.79082 2.36641,0.95908 5.9284,4.91223 5.7197,6.99489 -0.20869,2.08267 -0.52067,2.29486 -1.23458,3.77366 l -6.65169,-0.007 c 0.9478,-1.50476 1.01395,-2.25701 0.98338,-3.45705 -0.0306,-1.20004 -2.99392,-3.53611 -5.49825,-3.53611 -2.201,0.0564 -3.62125,2.07078 -3.85245,4.00715 -0.23135,1.93637 2.34372,2.70919 3.71003,3.52701 3.91632,2.13177 9.99964,7.15558 10.72352,11.15816 -1.44244,6.32046 -5.7478,8.30773 -11.39114,8.31267 -5.64334,0.005 -11.03543,-4.47712 -10.98392,-7.76139 0.22452,-2.22889 1.46056,-4.57698 1.46056,-4.57698 h 6.66666 c 0,0 -2.35659,2.48022 -1.08616,4.27624 z"
       inkscape:label="s"
       inkscape:connector-curvature="0"
       style="fill:#005544;fill-opacity:1;stroke-width:0.25057074"
       sodipodi:nodetypes="cccccccsccsczcczccccc" />
    <path
       id="XMLID_63_"
       d="m 9.6124236,204.66968 c -0.5016499,0.025 -0.9514099,0.0501 -1.3780299,0.10023 -0.60108,0.0752 -1.20216,-0.0501 -1.80374,-0.0752 -0.20127,0 -0.40005,-0.12528 -0.60108,-0.20046 -0.10015,-0.32575 0.0748,-0.5262 0.3004,-0.62643 0.32579,-0.1754 0.72732,-0.30068 1.02796,-0.5262 0.30041,-0.22551 0.49996,-0.55126 0.75068,-0.85194 0.12621,-0.15034 0.27607,-0.27563 0.37719,-0.42597 0.40074,-0.65148 0.82497,-1.30297 1.1529699,-1.97951 0.29991,-0.57632 0.24847,-0.877 -0.10165,-1.50342 0.15137,-0.0752 0.30041,-0.20047 0.42664,-0.1754 2.5372804,0 4.5214404,-0.0961 6.7649204,0.0752 0.30155,-0.0501 0.52631,-0.0251 0.72731,0.22551 -0.37642,0.92711 -0.6279,2.20501 -0.57647,3.00685 0.15071,-0.0752 0.32576,-0.12529 0.42566,-0.22551 0.72729,-0.85195 1.62904,-1.50343 2.63118,-1.97953 1.12736,-0.55124 2.30492,-1.07744 3.53216,-1.35308 1.05357,-0.22551 2.105869,-0.37586 3.181529,-0.22551 0.15161,0.0251 0.32827,0.0251 0.477369,0.10024 0.75239,0.32574 1.528409,0.60137 2.129489,1.22779 0.62791,0.65149 1.328369,1.22779 1.979669,1.87928 0.40177,0.40091 0.727289,0.90206 1.127339,1.30297 0.57647,0.60137 0.902249,1.27791 1.202659,2.02962 0.20127,0.55127 0.55137,1.07746 0.82743,1.60367 0.30041,0.57632 0.650799,1.15264 0.876379,1.77903 0.35089,0.97724 0.70271,1.97955 0.82796,3.03195 0.12404,1.00232 0.22564,2.02957 0.32502,3.05692 0.0201,0.27556 -0.0201,0.5513 -0.0497,0.82683 -0.0748,1.05249 -0.15129,2.07978 -0.20101,3.13228 -0.0497,0.77675 -0.19957,1.50341 -0.42516,2.25511 -0.45198,1.50345 -1.152469,2.85634 -1.904859,4.20952 -0.40056,0.75173 -0.977029,1.40325 -1.528419,2.05464 -0.25022,0.30076 -0.52631,0.57633 -0.776999,0.87709 -1.21272,1.39545 -3.055308,2.23107 -4.760677,2.43051 -0.65077,0.0751 -1.32839,0.0249 -1.979129,0.05 -1.9594,0.35251 -3.68565,-0.66645 -5.11252,-1.90421 -0.55139,-0.50123 -1.10265,-0.97726 -1.65243,-1.47847 -0.25072,-0.22541 -0.50168,-0.42592 -0.77748,-0.62634 -0.0204,-0.0247 -0.0994,-0.0247 -0.15084,-0.0247 -0.22463,0.15025 -0.14983,0.40084 -0.14983,0.60135 -0.0201,0.55123 -0.0497,1.10248 0,1.65373 0.10133,6.05805 0,12.29802 -0.25059,18.21655 -0.0497,1.25278 -0.2999,2.50573 -0.37547,3.75847 -0.0497,0.57633 -0.27527,1.17781 -0.50091,1.72899 -0.32575,0.75173 -0.75316,1.47839 -1.12786,2.20505 -0.0748,0.15026 -0.22638,0.30067 -0.20127,0.426 0,0.37583 -0.22389,0.476 -0.49996,0.55117 -0.17592,0.0502 -0.37692,0.0753 -0.5765,0.0753 -0.80206,-0.0501 -1.57909,-0.12536 -2.38143,-0.15044 -0.62619,0 -1.2774404,0.0502 -1.9031003,0.0752 -0.62619,0.0252 -1.27921,0.0502 -1.90487,0.0502 -0.0748,0 -0.15036,-0.0502 -0.25148,-0.10028 0,-0.10016 -0.0201,-0.27551 0.0201,-0.30066 0.5514,-0.37582 0.80238,-0.97725 1.10276,-1.52849 0.35089,-0.65144 0.67591,-1.328 1.00243,-2.0045 0.0505,-0.10026 0.10035,-0.20042 0.10035,-0.3258 0.20019,-1.32802 0.6011399,-2.63107 0.6011399,-4.00909 0,-13.2784 0.10009,-28.81544 0.10009,-40.06628 -0.0748,-0.52624 -0.14962,-1.02738 -0.12449,-1.55358 0.12449,-0.0752 0.0748,-0.20046 0.0201,-0.37586 z m 20.1466974,9.02051 c -0.0201,-0.52616 -0.0497,-1.05232 -0.12573,-1.57848 -0.0748,-0.60142 -0.22463,-1.17775 -0.35087,-1.77915 -0.17417,-0.72667 -0.40055,-1.42821 -0.5017,-2.17994 -0.0748,-0.5512 -0.2736,-1.0023 -0.576469,-1.42826 -0.22387,-0.37586 -0.47482,-0.72665 -0.75015,-1.07746 -0.37589,-0.47608 -0.852539,-0.85193 -1.403159,-1.12757 -0.60235,-0.30068 -1.22801,-0.45102 -1.879209,-0.50114 -0.72739,-0.0501 -1.62914,-0.0373 -2.20414,0.41375 -2.04118,1.40321 -3.51813,2.18839 -4.16184,3.94616 -0.30062,0.80182 -0.57668,1.6037 -0.70067,2.4556 -0.0999,0.65152 -0.17431,1.27801 -0.25072,1.9294 -0.10014,0.85206 -0.0204,1.70384 0.0201,2.55573 0.0201,0.32592 0.12467,0.65155 0.25022,0.95224 0.32575,0.87709 0.75139,1.72899 1.27693,2.50574 0.4771,0.72666 1.05307,1.40325 1.65465,2.05472 0.77706,0.82692 1.75353,1.30291 2.85681,1.55351 0.65075,0.15033 1.30178,0.10016 1.979139,0.17538 0.75168,0.0752 1.40351,-0.17538 2.004879,-0.60138 0.52612,-0.37583 0.952079,-0.82675 1.30215,-1.37823 0.226399,-0.35076 0.427349,-0.72658 0.651269,-1.05233 0.45151,-0.67648 0.60198,-1.40306 0.62674,-2.1799 0,-0.30076 0,-0.62649 0.10113,-0.90216 0.20063,-0.87691 0.22529,-1.804 0.17489,-2.75623 z"
       inkscape:label="p"
       inkscape:connector-curvature="0"
       style="fill:#005544;stroke-width:0.25057074"
       sodipodi:nodetypes="ccccccscccccccccccccccccccccccccccccccccccccccccccsccccccccccccccccccccccccccccccccccc" />
    <path
       id="XMLID_47_"
       d="m 155.983,229.77855 c 0.42566,0.1754 0.62619,0.47605 0.67561,0.95216 0.0507,0.50111 0.0507,0.55131 -0.42412,0.67649 -0.20127,0.0502 -0.45199,0.10034 -0.65249,0.0752 -1.12787,-0.1754 -2.22941,-0.25062 -3.35677,-0.25062 -0.5519,0 -1.10326,-0.10019 -1.62954,-0.15028 -0.25072,-0.0247 -0.50168,-0.0247 -0.72557,0 -0.85254,0.0251 -1.70434,0.0501 -2.55691,0.10026 -0.55136,0.0251 -0.95289,-0.22552 -1.30326,-0.57634 -0.22561,-0.20041 -0.45026,-0.40091 -0.67585,-0.62648 -0.0994,0.0502 -0.22563,0.0753 -0.30117,0.12531 -1.10202,0.57633 -2.25483,0.85199 -3.48301,0.92708 -0.29991,0.0251 -0.60106,0.0502 -0.90096,0.10026 -0.57649,0.10019 -1.12785,0.17541 -1.72947,0.15039 -0.80235,0 -1.60446,0.0752 -2.40653,0.0502 -1.60272,-0.0502 -3.10606,-0.47617 -4.53374,-1.17774 -0.37777,-0.17547 -0.72693,-0.50108 -1.05366,-0.80189 -0.50169,-0.42585 -0.95194,-0.92709 -1.45267,-1.32801 -0.97673,-0.75174 -1.67944,-1.72882 -2.40578,-2.70607 -0.25019,-0.32574 -0.27529,-0.77688 -0.29987,-1.17773 -0.10162,-0.92709 -0.15134,-1.85429 -0.10162,-2.78138 0.0201,-0.57633 0.0765,-1.17768 0.55186,-1.65367 0.34959,-0.35076 0.52628,-0.90224 0.777,-1.35316 0.0743,-0.15026 0.14909,-0.30082 0.25019,-0.426 0.80288,-1.05232 1.65293,-2.05464 2.65631,-2.93164 0.17592,-0.15025 0.40055,-0.27566 0.60105,-0.426 0.27534,-0.1754 0.5514,-0.37582 0.82672,-0.55118 0.4754,-0.35088 0.95192,-0.65164 1.52839,-0.8019 0.17592,-0.05 0.37547,-0.12531 0.52684,-0.22557 0.37542,-0.25049 0.72551,-0.57615 1.25183,-0.57615 0.15082,0 0.30115,-0.12536 0.4268,-0.22553 0.72515,-0.52616 1.5782,-0.75173 2.42997,-1.02747 0.25149,-0.10017 0.52683,-0.17535 0.77704,-0.27555 0.77774,-0.35078 1.57812,-0.65153 2.43069,-0.82694 0.60106,-0.12519 1.20214,-0.2255 1.75353,-0.47601 0.62791,-0.27565 1.20439,-0.65148 1.80547,-1.00234 0.19928,-0.12526 0.3747,-0.35081 0.45024,-0.57623 0.2753,-0.82699 0.40158,-1.65383 -0.0755,-2.48072 -0.42614,-0.75171 -0.9261,-1.42825 -1.67849,-1.90434 -0.14986,-0.10021 -0.30067,-0.25056 -0.45019,-0.3508 -0.15084,-0.10022 -0.30247,-0.25057 -0.47665,-0.30068 -0.75239,-0.22551 -1.52845,-0.45103 -2.30543,-0.65148 -0.87715,-0.22551 -1.75353,0 -2.60611,0.0752 -0.9266,0.10023 -1.60418,0.70159 -2.38023,1.07745 -0.12573,0.0752 -0.25019,0.22552 -0.2999,0.37585 -0.3526,0.90206 -0.57649,1.82917 -0.60157,2.8064 0,0.12529 0.0502,0.27562 0.0748,0.40093 0.22561,0.57631 0.52677,1.10248 0.90147,1.5786 0.2509,0.32571 0.47665,0.67653 0.70125,1.02729 0.0765,0.12537 0.1016,0.27572 -0.0204,0.3759 -0.0758,0.0501 -0.22514,0.10024 -0.30168,0.0501 -0.49996,-0.30061 -1.05133,-0.30061 -1.6027,-0.25056 -1.22748,0.12531 -2.48137,0.12531 -3.70861,0.0502 -0.17589,0 -0.32575,-0.0252 -0.50169,0 -0.37545,0.0502 -0.65075,-0.0502 -0.82644,-0.40097 -0.0201,-0.0751 -0.10041,-0.15035 -0.15007,-0.17536 -0.45125,-0.27562 -0.67625,-0.70159 -0.90149,-1.15264 -0.2018,-0.4259 -0.45201,-0.80186 -0.65175,-1.2278 -0.27604,-0.60136 -0.32702,-1.22778 -0.20079,-1.85421 0.25146,-1.15263 0.77732,-2.17998 1.42849,-3.13214 0.6513,-0.92711 1.37817,-1.77906 2.23067,-2.53076 0.42488,-0.37586 0.82542,-0.80184 1.27744,-1.1777 1.44248,-1.11139 2.87341,-0.91379 4.53603,-1.32802 0.92607,-0.27562 1.85345,-0.12528 2.78028,-0.0752 0.22561,0.025 0.42614,0.0752 0.65134,0.0752 1.05132,0.0501 2.05534,0.37586 3.00758,0.82689 0.65077,0.30068 1.30154,0.60137 1.97914,0.82689 0.80226,0.27561 1.52841,0.72664 2.25488,1.17767 0.57658,0.3508 1.15205,0.72666 1.75464,1.10252 0.77628,0.47608 1.27719,1.20274 1.65264,2.00457 0.52678,1.12757 0.7022,2.30525 0.67757,3.53305 0,8.13458 -0.42738,12.3013 -0.42738,18.61748 -0.14915,0.52616 -0.0497,1.02725 0.0756,1.55341 0.17589,0.70174 0.55136,1.2279 1.05227,1.72899 0.55137,0.52616 1.15295,0.92708 1.80448,1.30298 0.45125,0.27567 1.00262,0.40085 1.6037,0.20043 z m -10.22374,-9.84728 c 0,-0.32591 0.0201,-0.47617 0,-0.60148 -0.25098,-0.97725 -0.45029,-1.97958 -0.80092,-2.93173 -0.40127,-1.1025 -1.70407,-1.77899 -2.88161,-1.62873 -2.66476,0.64515 -3.05788,0.96432 -4.7617,2.00455 -0.92245,0.76127 -1.54012,0.9827 -2.37971,1.90436 -0.57647,0.6767 -1.02846,1.42838 -1.30379,2.28028 -0.19955,0.55118 -0.32578,1.10248 -0.0994,1.6035 0.27529,0.65164 0.57597,1.30316 1.07688,1.82932 0.0201,0.05 0.10067,0.05 0.12525,0.10016 0.45122,0.426 1.1033,0.50124 1.6042,0.82698 0.0497,0.0242 0.10015,0.0242 0.14986,0.0242 0.67761,0.0502 1.37807,0.10033 2.05395,0.15033 0.12623,0 0.27606,0 0.40228,-0.0247 0.57653,-0.10039 1.15247,-0.1505 1.70438,-0.30081 0.60105,-0.15033 1.22724,-0.27552 1.77864,-0.55118 1.35173,-0.65147 2.35511,-1.67884 2.78027,-3.18224 0.0514,-0.17548 0.15081,-0.35088 0.2005,-0.5513 0.20103,-0.32577 0.27684,-0.72666 0.35089,-0.95226 z"
       inkscape:label="a"
       inkscape:connector-curvature="0"
       style="fill:#005544;stroke-width:0.25057074"
       sodipodi:nodetypes="ccccsccccccccccccccccccccccccscccccccccccccccccccccccccccccccccccccccccccccccccccccccccccccccccc" />
    <path
       id="XMLID_43_"
       d="m 145.9075,245.66657 c -0.19955,-0.30069 -0.19955,-0.62643 -0.19955,-0.95217 0,-0.5262 0,-1.0524 -0.0204,-1.5786 -0.0201,-0.52619 0.14986,-1.02734 0.3012,-1.52848 0.0994,-0.32574 0.17367,-0.62643 0.2753,-0.95217 0.25087,-0.85194 0.60105,-1.65377 1.12786,-2.38043 0.32576,-0.42597 0.67535,-0.85194 0.72575,-1.42825 0,-0.0752 0.0749,-0.15034 0.12597,-0.25057 0.65162,-0.25057 1.32747,-0.3508 2.00324,-0.27563 0.90355,0.0752 1.7549,-0.0752 2.63237,-0.17539 0.32565,-0.0251 0.65143,-0.10024 0.97642,0.0251 0.3012,0.12528 0.45146,-0.10023 0.70125,-0.25057 0.27533,0.35079 0.52679,0.72665 0.77751,1.07745 -0.0502,0.0752 -0.0502,0.15034 -0.0999,0.1754 -0.82743,0.42597 -1.32913,1.17768 -1.72895,1.95445 -0.35097,0.65148 -0.57594,1.37815 -0.82743,2.07974 -0.15081,0.45103 -0.2753,0.90206 -0.22561,1.37814 0.0201,0.22552 -0.15403,4.05917 -0.0497,0.65149 0,11.94862 0.30028,1.62771 0.30028,11.36336 -0.0201,0.40092 -0.0748,0.82674 -0.10007,1.22772 -0.0511,1.00236 -0.10099,2.02975 -0.0511,3.03198 0.0511,1.05249 0.47696,1.87924 1.05294,2.70616 2.32055,2.42697 2.72875,0.73234 3.69419,1.03033 0.12448,-0.0501 0.22389,-0.15026 0.32498,-0.25059 0.30121,-0.25042 0.5514,-0.55123 0.85257,-0.77676 0.5257,-0.35081 0.70046,-1.60362 0.42479,-2.12979 -0.0998,-0.2005 -0.27572,-0.32586 -0.52591,-0.37585 -0.15034,-0.0251 -0.30115,-0.10031 -0.52541,-0.1754 0.30051,-0.20043 0.5003,-0.35093 0.75081,-0.52634 0.10025,0.0752 0.22534,0.12541 0.32599,0.2005 0.15084,0.12541 0.32499,0.17541 0.52552,0.17541 0.22637,-0.0251 0.4519,-0.0251 0.65203,-0.05 1.80462,-0.22557 3.63379,-0.0752 5.46212,-0.12541 0.22561,0 0.45201,0 0.57647,0.27566 -0.0748,0.10017 -0.17418,0.22557 -0.2753,0.37591 0.10112,0.17535 0.22561,0.37576 0.2753,0.57633 0.12562,0.47599 0.20053,0.9521 -0.0497,1.45324 -0.0748,0.15034 -0.0999,0.30059 -0.1501,0.47617 -0.22587,1.02725 -0.77724,1.87932 -1.35371,2.70607 -0.3751,0.52616 -0.67617,1.07741 -1.00261,1.60375 -0.45024,0.72658 -1.07593,1.32798 -1.62783,1.97942 -0.0201,0.0249 -0.05,0.0502 -0.05,0.0502 -0.45164,0.37577 -0.7774,0.90193 -1.3785,1.15262 -0.52676,0.22538 -0.95163,0.65138 -1.45283,0.95205 -0.57653,0.32583 -1.20235,0.57625 -1.85518,0.65156 -0.42516,0.0501 -0.85257,0.2255 -1.30281,0.2506 -0.60108,0.0501 3.17236,0.0972 2.57128,0.0972 -0.60106,0 -1.20214,-0.0248 -1.80375,-0.0502 -1.42772,-0.0501 -2.85676,-0.20043 -4.23484,-0.65152 -0.52681,-0.1754 -1.02732,-0.40075 -1.45365,-0.72658 -0.25064,-0.17541 -0.50091,-0.32574 -0.72591,-0.52616 -0.47622,-0.45111 -0.92742,-0.92709 -1.4274,-1.35316 -0.5022,-0.42583 -0.95366,-0.90199 -1.35424,-1.42823 -1.60798,-2.21874 -1.60491,-3.763 -1.72879,-6.38953 0.17653,-1.42821 0.15108,-2.8565 0.17653,-4.28472 0,-8.63071 -0.0201,-0.35392 -0.0201,-10.08547 z"
       inkscape:label="l"
       inkscape:connector-curvature="0"
       style="fill:#005544;stroke-width:0.25057074"
       sodipodi:nodetypes="csccccccccccccccccccccccccccccccccccccccccccccsccccsccccc" />
    <path
       id="XMLID_32_"
       d="m 47.608193,198.41692 c -0.003,1.66668 -0.003,5.00001 -0.003,8.33335 4.559463,-6.83711 17.396598,-11.33893 20.835368,-2.07312 0.83174,3.73978 -2.85676,7.918 -2.85676,7.918 l -6.764902,-0.22556 c 0,0 5.162212,-5.24612 2.905132,-7.21634 -0.77713,-0.45103 -1.553101,-0.80182 -2.480681,-0.72665 -3.801432,0.41427 -6.802414,5.05674 -8.844946,7.96813 -2.398131,3.24463 -2.881841,7.54592 -2.580991,11.1504 0.10727,1.55446 0.668371,3.12622 1.289421,4.40216 0.45593,0.92326 1.831271,2.13631 1.831271,2.13631 H 37.604763 c 0,0 1.384829,-1.36855 1.943419,-2.05322 0.848309,-1.22049 1.300639,-2.84319 1.278569,-4.18456 0,-4.91065 0.11137,-16.53876 0.11137,-20.42889 h -3.333358 c 2.470968,-1.24083 3.102238,-2.40296 3.333358,-4.99999 h 6.666652 z"
       inkscape:label="r"
       inkscape:connector-curvature="0"
       style="fill:#005544;stroke-width:0.25057074"
       sodipodi:nodetypes="ccccccccccccccccccc" />
    <path
       d="m 72.358775,193.32451 c -0.10014,0.65149 0.0747,1.2783 0.52671,1.77945 0.67588,0.67654 1.42777,1.2277 2.37969,1.40309 0.27533,0.0501 0.55155,0.0751 0.82738,0.025 0.87715,-0.12529 1.60443,-0.57632 2.25523,-1.12757 0.0993,-0.0752 0.20092,-0.17521 0.27522,-0.30049 0.30117,-0.52619 0.57639,-1.07775 0.65196,-1.67912 0.0743,-0.42597 0.12589,-0.8768 -0.0494,-1.30277 -0.2767,-0.7016 -0.6273,-1.35308 -1.30493,-1.754 -0.17417,-0.12528 -0.32498,-0.30098 -0.49995,-0.42626 -2.49079,-1.67817 -5.19216,1.45333 -5.06191,3.38271 z m -0.42497,14.50813 c 0,4.6045 0.14899,10.50397 0.14899,14.45834 0.0122,0.80081 -0.11322,1.65628 -0.25014,2.38033 -0.10422,2.38484 -1.98705,4.02061 -3.29388,6.06104 l 13.00718,0.0878 c -1.23571,-1.7556 -2.65914,-3.71196 -2.67155,-5.87335 0,-5.2264 0.47186,-10.632 0.35116,-15.88626 0.0122,-2.41393 -0.2971,-4.55374 -0.87784,-6.76541 -0.42111,-1.21921 -0.99144,-2.894 -2.28025,-2.98189 -2.51153,-0.17119 -3.90025,6.16202 -4.13367,8.51939 z"
       id="XMLID_29_"
       inkscape:label="i"
       inkscape:connector-curvature="0"
       style="fill:#005544;stroke-width:0.25057074"
       sodipodi:nodetypes="cccccccccccccccccccsc" />
    <path
       id="XMLID_60_"
       d="m 125.74896,230.42888 c -0.17595,0.20046 -0.35087,0.40093 -0.50171,0.57632 -0.35082,0.0752 -0.55138,-0.37586 -0.92733,-0.27564 -0.2753,0.0752 -0.60106,0 -0.90096,-0.025 -0.20104,0 -0.37771,-0.0501 -0.57647,-0.0501 -0.40233,0 -0.82749,-0.025 -1.22728,0 -0.25148,0 -0.50167,0.0752 -0.75316,0.0752 -0.95118,0 -1.92947,0.0251 -2.88139,-0.0501 -0.62617,-0.0501 -1.25236,-0.15034 -1.88026,-0.22551 -1.02624,-0.12529 -2.07855,-0.25058 -3.10529,-0.30068 -0.17592,0 -0.40227,0.025 -0.55136,0.12528 -0.4771,0.30068 -0.87768,0.1754 -1.27868,-0.1754 0.10112,-0.42597 0.2999,-0.72666 0.75189,-0.75171 0.32576,-0.025 0.55139,-0.15034 0.7524,-0.42598 0.12398,-0.17539 0.32575,-0.30068 0.49995,-0.42596 0.40228,-0.25058 0.70218,-0.62643 0.90223,-1.0524 0.50168,-0.95217 0.82672,-1.97951 1.05307,-3.0319 0.20677,-3.92145 0.82725,-8.88715 0.25032,-12.65386 -0.0743,-0.47607 -0.12398,-0.97707 -0.22561,-1.45325 -0.0201,-0.15033 -0.10014,-0.30066 -0.14986,-0.45099 -0.0765,-0.20066 -0.22558,-0.40091 -0.2753,-0.6014 -0.32578,-1.22785 -1.20266,-1.67882 -2.3551,-1.87925 -0.80288,-0.1254 -1.45363,0.22545 -2.13125,0.55122 -0.12446,0.05 -0.19875,0.20051 -0.27527,0.30067 -0.42516,0.52617 -0.75097,1.15257 -1.30284,1.60368 -0.10112,0.0751 -0.15084,0.22539 -0.20052,0.35075 -0.22559,0.47606 -0.37547,0.97725 -0.45199,1.50347 -0.0201,0.30066 -0.0497,0.60143 -0.14907,0.90201 -0.65204,2.64281 -0.14838,5.14518 -0.57647,7.61732 -0.0201,0.1002 -0.0748,0.20042 -0.12449,0.30071 -0.30242,0.62638 -0.576,1.25286 -0.92858,1.82908 -0.3747,0.60146 -0.77528,1.22789 -1.6033,1.278 -0.17536,0.0251 -0.34954,0.12529 -0.5262,0.20047 -0.72731,0.37585 -1.35348,0.10022 -1.90487,-0.35081 -0.30041,-0.25057 -0.60105,-0.50115 -0.77525,-0.82693 -0.12621,-0.22549 -0.37719,0 -0.42741,-0.25062 -0.0743,-0.35073 -0.60108,-0.55114 -0.32499,-1.00225 0.0201,-0.0248 -0.10017,-0.12521 -0.12464,-0.20041 -0.0521,-0.0752 -0.10174,-0.15036 -0.10174,-0.22556 -0.0201,-0.27557 0.2761,-0.57632 -0.0743,-0.82689 -0.25072,-0.17534 -0.14957,-0.52625 -0.2753,-0.75162 -0.276602,-0.45108 -0.201802,-0.902 -0.0756,-1.35312 0.10015,-0.35076 0.10015,-0.70152 0.10015,-1.05228 0,-2.08799 0.37184,-4.34043 -0.576472,-6.16425 -0.0505,-0.075 -0.0505,-0.15025 -0.0751,-0.22534 -0.0994,-0.82692 -0.550591,-1.47849 -0.851771,-2.23023 -0.12449,-0.35075 -0.45199,-0.60125 -0.87715,-0.67649 -1.10252,-0.22552 -2.02935,0.15034 -2.80633,0.87698 -0.42566,0.40092 -0.75144,0.95218 -1.07643,1.45342 -0.20129,0.32573 -0.30292,0.70151 -0.4269,1.07741 -0.20101,0.6265 -0.37598,1.27789 -0.55139,1.90439 -0.0502,0.20042 -0.12449,0.42585 -0.0999,0.65133 0,3.7504 0.42566,8.47218 0.42566,11.87714 0.20142,2.94733 2.62398,4.88529 2.62398,4.88529 -3.8602,0 -8.402346,-0.0106 -12.160704,-0.11202 0,0 2.61652,-2.38517 2.41089,-5.03185 1.113938,-4.69486 -0.003,-9.81389 -0.11637,-14.02393 -0.0201,-0.6265 0.0204,-1.25282 0.0497,-1.87933 0.0204,-0.92707 0.22638,-1.804 0.501671,-2.65606 0.0748,-0.20043 0.12624,-0.42583 0.17593,-0.62633 0.149427,-0.6014 0.400547,-1.1275 0.726327,-1.65385 0.3501,-0.60129 0.77701,-1.12762 1.27869,-1.60362 0.32551,-0.32573 0.65127,-0.67649 0.977056,-1.02743 0.50094,-0.57624 1.1271,-0.95196 1.80376,-1.3029 0.42608,-0.20051 0.82666,-0.45097 1.22896,-0.67649 0.22389,-0.12524 0.45024,-0.17542 0.70046,-0.0502 0.12448,0.0502 0.27532,0.10034 0.40058,0.10034 0.75239,-0.0752 1.47796,0.10017 2.22959,0.12518 0.6518,0.0502 1.3294,0.10027 1.98067,0.12524 0.47659,0.0252 0.9013,0.1754 1.326621,0.3759 0.978802,0.47616 2.031872,0.85198 2.957932,1.47843 0.62619,0.40081 1.22725,0.476 1.95358,0.22541 0.52681,-0.17536 1.07815,-0.22541 1.60396,-0.35076 0.32599,-0.0751 0.62666,-0.20043 0.90196,-0.37583 0.5519,-0.32573 1.0536,-0.67649 1.67926,-0.8519 0.0748,-0.0249 0.17592,-0.0502 0.22561,-0.10034 0.57647,-0.65135 1.40393,-0.75169 2.17919,-0.92708 0.55187,-0.12523 1.15295,-0.15023 1.72849,-0.1754 0.22606,-0.0243 0.45244,0 0.65173,0.0752 0.47656,0.12531 0.95369,0.22552 1.45536,0.22552 0.19876,0 0.4244,0.0751 0.62617,0.1754 0.45026,0.20044 0.90148,0.4259 1.35114,0.65148 0.6531,0.30078 1.17764,0.80181 1.75414,1.22784 0.30115,0.2254 0.55137,0.52617 0.82747,0.80173 0.50091,0.47617 0.90145,1.00231 1.15294,1.67882 0.27529,0.77675 0.72732,1.47832 1.10275,2.20514 0.50094,0.90201 0.97092,0.61515 1.07083,1.64263 0.2458,5.53243 0.10113,10.9378 0.10113,16.73801 0.0497,0.30069 -0.0154,1.81529 0.20613,2.06587 0.25069,0.27562 0.45024,0.62643 0.60158,0.97723 0.17589,0.45102 0.45199,0.80182 0.77698,1.15262 0.45024,0.47608 0.87715,0.97723 1.45361,1.32802 -0.0201,-0.12528 -0.0201,-0.0501 0.0497,0.0752 z"
       inkscape:label="w"
       inkscape:connector-curvature="0"
       style="fill:#005544;stroke-width:0.25057074"
       sodipodi:nodetypes="ccccscsccccccccccccccccccccccccccccccccccccccccccccccccccccccccccccccccccccccccscccccccccccccc" />
    <path
       sodipodi:nodetypes="ccccsccccccccccccccccccccccccscccccccccccccccccccccccccccccccccccccccccccccccccccccccccccccccccc"
       style="fill:#005544;stroke-width:0.25057074"
       inkscape:connector-curvature="0"
       inkscape:label="a"
       d="m 67.631065,268.56805 c 0.42566,0.1754 0.62619,0.47605 0.67561,0.95216 0.0507,0.50111 0.0507,0.55131 -0.42412,0.67649 -0.20127,0.0502 -0.45199,0.10034 -0.65249,0.0752 -1.12787,-0.1754 -2.22941,-0.25062 -3.35677,-0.25062 -0.5519,0 -1.10326,-0.10019 -1.62954,-0.15028 -0.25072,-0.0247 -0.50168,-0.0247 -0.72557,0 -0.85254,0.0251 -1.70434,0.0501 -2.55691,0.10026 -0.55136,0.0251 -0.95289,-0.22552 -1.30326,-0.57634 -0.22561,-0.20041 -0.45026,-0.40091 -0.67585,-0.62648 -0.0994,0.0502 -0.22563,0.0753 -0.30117,0.12531 -1.10202,0.57633 -2.25483,0.85199 -3.483,0.92708 -0.29991,0.0251 -0.60106,0.0502 -0.90096,0.10026 -0.57648,0.10019 -1.12784,0.17541 -1.72945,0.15039 -0.80235,0 -1.60446,0.0752 -2.40652,0.0502 -1.60271,-0.0502 -3.10605,-0.47617 -4.533739,-1.17774 -0.37777,-0.17547 -0.72692,-0.50108 -1.05365,-0.80189 -0.5017,-0.42585 -0.95195,-0.92709 -1.45267,-1.32801 -0.97673,-0.75174 -1.67944,-1.72882 -2.40578,-2.70607 -0.25019,-0.32574 -0.27529,-0.77688 -0.29987,-1.17773 -0.10163,-0.92709 -0.15135,-1.85429 -0.10163,-2.78138 0.0201,-0.57633 0.0765,-1.17768 0.55187,-1.65367 0.34959,-0.35076 0.52628,-0.90224 0.777,-1.35316 0.0743,-0.15026 0.14909,-0.30082 0.25019,-0.426 0.80288,-1.05232 1.65293,-2.05464 2.65631,-2.93164 0.17592,-0.15025 0.40055,-0.27566 0.60105,-0.426 0.27533,-0.1754 0.551399,-0.37582 0.826719,-0.55118 0.4754,-0.35088 0.95192,-0.65164 1.52839,-0.8019 0.17592,-0.05 0.37547,-0.12531 0.52684,-0.22557 0.37542,-0.25049 0.72551,-0.57615 1.25182,-0.57615 0.15082,0 0.30115,-0.12536 0.4268,-0.22553 0.72515,-0.52616 1.57819,-0.75173 2.42996,-1.02747 0.25149,-0.10017 0.52682,-0.17535 0.77703,-0.27555 0.77774,-0.35078 1.57811,-0.65154 2.43068,-0.82694 0.60105,-0.12519 1.20213,-0.2255 1.75352,-0.47602 0.62791,-0.27565 1.20439,-0.65147 1.80547,-1.00233 0.19928,-0.12526 0.3747,-0.35082 0.45024,-0.57623 0.2753,-0.82699 0.40158,-1.65383 -0.0755,-2.48072 -0.42614,-0.75171 -0.9261,-1.42825 -1.67849,-1.90434 -0.14986,-0.10022 -0.30067,-0.25057 -0.45019,-0.3508 -0.15084,-0.10023 -0.30247,-0.25057 -0.47665,-0.30068 -0.75239,-0.22552 -1.52844,-0.45103 -2.30542,-0.65148 -0.87714,-0.22551 -1.75352,0 -2.60609,0.0752 -0.9266,0.10022 -1.60417,0.70159 -2.38022,1.07745 -0.12573,0.0752 -0.25019,0.22552 -0.2999,0.37585 -0.35259,0.90206 -0.57648,1.82917 -0.60156,2.8064 0,0.12529 0.0502,0.27561 0.0748,0.40093 0.22561,0.5763 0.52676,1.10248 0.90146,1.5786 0.2509,0.32571 0.47665,0.67653 0.70125,1.02729 0.0765,0.12536 0.1016,0.27571 -0.0204,0.3759 -0.0758,0.0501 -0.22514,0.10024 -0.30168,0.0501 -0.49996,-0.30061 -1.05132,-0.30061 -1.60269,-0.25057 -1.22748,0.12532 -2.48137,0.12532 -3.708609,0.0502 -0.17589,0 -0.32575,-0.0252 -0.5017,0 -0.37545,0.0502 -0.65074,-0.0502 -0.82643,-0.40096 -0.0201,-0.0751 -0.10041,-0.15035 -0.15007,-0.17536 -0.45125,-0.27562 -0.67625,-0.70159 -0.90149,-1.15265 -0.2018,-0.42589 -0.45201,-0.80186 -0.65175,-1.2278 -0.27604,-0.60135 -0.32702,-1.22778 -0.20079,-1.85421 0.25146,-1.15262 0.77732,-2.17997 1.42849,-3.13213 0.6513,-0.92712 1.37816,-1.77906 2.23067,-2.53077 0.42487,-0.37585 0.825419,-0.80183 1.277439,-1.17769 1.44248,-1.11139 2.8734,-0.9138 4.53601,-1.32802 0.92607,-0.27562 1.85344,-0.12528 2.78027,-0.0752 0.22561,0.025 0.42614,0.0752 0.65133,0.0752 1.05132,0.0501 2.05533,0.37586 3.00757,0.82689 0.65077,0.30068 1.30154,0.60137 1.97914,0.82689 0.80226,0.27561 1.52841,0.72664 2.25488,1.17767 0.57658,0.3508 1.15205,0.72666 1.75464,1.10251 0.77628,0.47609 1.27719,1.20274 1.65264,2.00458 0.52678,1.12757 0.7022,2.30524 0.67757,3.53305 0,8.13458 -0.42738,12.3013 -0.42738,18.61748 -0.14915,0.52616 -0.0497,1.02725 0.0756,1.55341 0.17589,0.70174 0.55136,1.2279 1.05227,1.72899 0.55137,0.52616 1.15295,0.92708 1.80448,1.30298 0.45125,0.27567 1.00262,0.40085 1.6037,0.20043 z m -10.22374,-9.84728 c 0,-0.32591 0.0201,-0.47617 0,-0.60148 -0.25098,-0.97725 -0.45029,-1.97958 -0.80092,-2.93173 -0.40127,-1.1025 -1.70407,-1.77899 -2.8816,-1.62873 -2.66475,0.64515 -3.05787,0.96432 -4.76168,2.00455 -0.92244,0.76127 -1.54011,0.9827 -2.37969,1.90436 -0.57647,0.6767 -1.02846,1.42838 -1.30379,2.28028 -0.19955,0.55118 -0.32578,1.10248 -0.0994,1.6035 0.27529,0.65164 0.57597,1.30316 1.07688,1.82932 0.0201,0.05 0.10067,0.05 0.12525,0.10016 0.45122,0.426 1.10329,0.50124 1.60419,0.82698 0.0497,0.0242 0.10015,0.0242 0.14986,0.0242 0.6776,0.0502 1.37806,0.10033 2.05394,0.15033 0.12623,0 0.27606,0 0.40227,-0.0247 0.57653,-0.10039 1.15247,-0.1505 1.70437,-0.30081 0.60105,-0.15033 1.22724,-0.27552 1.77863,-0.55118 1.35173,-0.65147 2.35511,-1.67884 2.78027,-3.18224 0.0514,-0.17548 0.15081,-0.35088 0.2005,-0.5513 0.20103,-0.32577 0.27684,-0.72666 0.35089,-0.95226 z"
       id="path5231" />
    <path
       sodipodi:nodetypes="ccccccscccccccccccccccccccccccccccccccccccccccccccsccccccccccccccccccccccccccccccccccc"
       style="fill:#005544;stroke-width:0.25057074"
       inkscape:connector-curvature="0"
       inkscape:label="p"
       d="m 70.926435,243.26141 c -0.50165,0.025 -0.95141,0.0501 -1.37803,0.10023 -0.60108,0.0752 -1.20216,-0.0501 -1.80374,-0.0752 -0.20127,0 -0.40005,-0.12528 -0.60108,-0.20046 -0.10015,-0.32575 0.0748,-0.5262 0.3004,-0.62643 0.32579,-0.1754 0.72732,-0.30068 1.02796,-0.5262 0.30041,-0.22551 0.49996,-0.55126 0.75068,-0.85194 0.12621,-0.15034 0.27607,-0.27563 0.37719,-0.42597 0.40074,-0.65148 0.82497,-1.30297 1.15297,-1.97951 0.29991,-0.57632 0.24847,-0.877 -0.10165,-1.50343 0.15137,-0.0752 0.30041,-0.20046 0.42664,-0.17539 2.53728,0 4.52144,-0.0961 6.76492,0.0752 0.30155,-0.0501 0.52631,-0.0251 0.72731,0.22551 -0.37642,0.92711 -0.6279,2.20501 -0.57647,3.00685 0.15071,-0.0752 0.32576,-0.12529 0.42566,-0.22551 0.72729,-0.85195 1.62904,-1.50343 2.63118,-1.97953 1.12736,-0.55124 2.30492,-1.07744 3.53216,-1.35308 1.05357,-0.22552 2.10587,-0.37586 3.18153,-0.22552 0.15161,0.0251 0.32827,0.0251 0.47737,0.10024 0.75239,0.32575 1.528412,0.60138 2.129492,1.2278 0.62791,0.65149 1.32837,1.22779 1.97967,1.87928 0.40177,0.40091 0.72729,0.90206 1.12734,1.30297 0.57647,0.60137 0.90225,1.27791 1.20266,2.02962 0.20127,0.55127 0.55137,1.07746 0.82743,1.60367 0.30041,0.57632 0.6508,1.15264 0.87638,1.77903 0.35089,0.97724 0.70271,1.97955 0.82796,3.03195 0.12404,1.00232 0.22564,2.02957 0.32502,3.05692 0.0201,0.27556 -0.0201,0.5513 -0.0497,0.82683 -0.0748,1.05249 -0.15129,2.07978 -0.20101,3.13228 -0.0497,0.77675 -0.19957,1.50341 -0.42516,2.25511 -0.45198,1.50345 -1.15247,2.85634 -1.90486,4.20952 -0.40056,0.75173 -0.97703,1.40325 -1.52842,2.05464 -0.25022,0.30076 -0.52631,0.57633 -0.777,0.87709 -1.21272,1.39545 -3.05531,2.23107 -4.760682,2.43051 -0.65077,0.0751 -1.32839,0.0249 -1.97913,0.05 -1.9594,0.35251 -3.68565,-0.66645 -5.11252,-1.90421 -0.55139,-0.50123 -1.10265,-0.97726 -1.65243,-1.47847 -0.25072,-0.22541 -0.50168,-0.42592 -0.77748,-0.62634 -0.0204,-0.0247 -0.0994,-0.0247 -0.15084,-0.0247 -0.22463,0.15025 -0.14983,0.40084 -0.14983,0.60135 -0.0201,0.55123 -0.0497,1.10248 0,1.65373 0.10133,6.05805 0,12.29802 -0.25059,18.21655 -0.0497,1.25278 -0.2999,2.50573 -0.37547,3.75847 -0.0497,0.57633 -0.27527,1.17781 -0.50091,1.72899 -0.32575,0.75173 -0.75316,1.47839 -1.12786,2.20505 -0.0748,0.15026 -0.22638,0.30067 -0.20127,0.426 0,0.37583 -0.22389,0.476 -0.49996,0.55117 -0.17592,0.0502 -0.37692,0.0753 -0.5765,0.0753 -0.80206,-0.0501 -1.57909,-0.12536 -2.38143,-0.15044 -0.62619,0 -1.27744,0.0502 -1.9031,0.0752 -0.62619,0.0252 -1.27921,0.0502 -1.90487,0.0502 -0.0748,0 -0.15036,-0.0502 -0.25148,-0.10028 0,-0.10016 -0.0201,-0.27551 0.0201,-0.30066 0.5514,-0.37582 0.80238,-0.97725 1.10276,-1.52849 0.35089,-0.65144 0.67591,-1.328 1.00243,-2.0045 0.0505,-0.10026 0.10035,-0.20042 0.10035,-0.3258 0.20019,-1.32802 0.60114,-2.63107 0.60114,-4.00909 0,-13.2784 0.10009,-28.81544 0.10009,-40.06628 -0.0748,-0.52624 -0.14962,-1.02738 -0.12449,-1.55358 0.12449,-0.0752 0.0748,-0.20046 0.0201,-0.37586 z m 20.146702,9.02051 c -0.0201,-0.52616 -0.0497,-1.05232 -0.12573,-1.57848 -0.0748,-0.60142 -0.22463,-1.17775 -0.35087,-1.77915 -0.17417,-0.72667 -0.40055,-1.42821 -0.5017,-2.17994 -0.0748,-0.5512 -0.2736,-1.0023 -0.57647,-1.42826 -0.223872,-0.37586 -0.474822,-0.72665 -0.750152,-1.07746 -0.37589,-0.47608 -0.85254,-0.85193 -1.40316,-1.12757 -0.60235,-0.30068 -1.22801,-0.45102 -1.87921,-0.50114 -0.72739,-0.0501 -1.62914,-0.0373 -2.20414,0.41375 -2.04118,1.40321 -3.51813,2.18839 -4.16184,3.94616 -0.30062,0.80182 -0.57668,1.6037 -0.70067,2.4556 -0.0999,0.65152 -0.17431,1.27801 -0.25072,1.9294 -0.10014,0.85206 -0.0204,1.70384 0.0201,2.55573 0.0201,0.32592 0.12467,0.65155 0.25022,0.95224 0.32575,0.87709 0.75139,1.72899 1.27693,2.50574 0.4771,0.72666 1.05307,1.40325 1.65465,2.05472 0.77706,0.82692 1.75353,1.30291 2.85681,1.55351 0.65075,0.15033 1.30178,0.10016 1.97914,0.17538 0.75168,0.0752 1.40351,-0.17538 2.00488,-0.60138 0.52612,-0.37583 0.95208,-0.82675 1.302152,-1.37823 0.2264,-0.35076 0.42735,-0.72658 0.65127,-1.05233 0.45151,-0.67648 0.60198,-1.40306 0.62674,-2.1799 0,-0.30076 0,-0.62649 0.10113,-0.90216 0.20063,-0.87691 0.22529,-1.804 0.17489,-2.75623 z"
       id="path5233" />
    <path
       sodipodi:nodetypes="ccccccccccccccccccc"
       style="fill:#005544;stroke-width:0.25057074"
       inkscape:connector-curvature="0"
       inkscape:label="r"
       d="m 109.98055,237.00865 c -0.003,1.66668 -0.003,5.00001 -0.003,8.33335 4.55946,-6.83711 17.39659,-11.33893 20.83536,-2.07312 0.83174,3.73978 -2.85676,7.918 -2.85676,7.918 l -6.7649,-0.22556 c 0,0 5.16221,-5.24612 2.90513,-7.21634 -0.77713,-0.45103 -1.5531,-0.80182 -2.48068,-0.72665 -3.80143,0.41427 -6.80241,5.05674 -8.84494,7.96813 -2.39813,3.24463 -2.88184,7.54592 -2.58099,11.1504 0.10727,1.55446 0.66837,3.12622 1.28942,4.40216 0.45593,0.92326 1.83127,2.13631 1.83127,2.13631 H 99.977118 c 0,0 1.384832,-1.36855 1.943422,-2.05322 0.84831,-1.22049 1.30064,-2.84319 1.27857,-4.18456 0,-4.91065 0.11137,-16.53876 0.11137,-20.42889 h -3.333362 c 2.470972,-1.24083 3.102242,-2.40296 3.333362,-4.99999 h 6.66665 z"
       id="path5235" />
    <path
       sodipodi:nodetypes="cccccccccccccccccccsc"
       style="fill:#005544;stroke-width:0.22203755"
       inkscape:connector-curvature="0"
       inkscape:label="i"
       id="path5237"
       d="m 134.20195,239.96951 c -0.10014,0.51156 0.0747,1.00374 0.52672,1.39726 0.67588,0.53124 1.42777,0.96402 2.3797,1.10173 0.27533,0.0393 0.55155,0.059 0.82739,0.0196 0.87715,-0.0984 1.60443,-0.45253 2.25524,-0.88539 0.0993,-0.059 0.20092,-0.13757 0.27522,-0.23595 0.30117,-0.41317 0.57639,-0.84627 0.65196,-1.31848 0.0743,-0.33448 0.12589,-0.68849 -0.0494,-1.02296 -0.2767,-0.55091 -0.6273,-1.06247 -1.30494,-1.37728 -0.17417,-0.0984 -0.32498,-0.23634 -0.49995,-0.33471 -2.4908,-1.31774 -5.19219,1.14119 -5.06194,2.65618 z m -0.42497,11.39209 c 0,3.61555 0.14899,8.24794 0.14899,11.35299 0.0122,0.62882 -0.11322,1.30055 -0.25014,1.86909 -0.10421,1.87263 -1.98704,3.15707 -3.29387,4.75926 l 13.00721,0.069 c -1.23571,-1.37854 -2.65914,-2.91471 -2.67155,-4.61188 0,-4.10388 0.47186,-8.34847 0.35116,-12.47423 0.0122,-1.89547 -0.2971,-3.57569 -0.87784,-5.31234 -0.42112,-0.95736 -0.99145,-2.27243 -2.28026,-2.34145 -2.51155,-0.13442 -3.90028,4.83855 -4.1337,6.68961 z" />
    <path
       d="m 170.52543,240.34749 c -0.10014,0.51156 0.0747,1.00374 0.52672,1.39726 0.67588,0.53124 1.42777,0.96402 2.3797,1.10173 0.27533,0.0393 0.55155,0.059 0.82739,0.0196 0.87715,-0.0984 1.60443,-0.45253 2.25524,-0.88539 0.0993,-0.059 0.20092,-0.13757 0.27522,-0.23595 0.30117,-0.41317 0.57639,-0.84627 0.65196,-1.31848 0.0743,-0.33448 0.12589,-0.68849 -0.0494,-1.02296 -0.2767,-0.55091 -0.6273,-1.06247 -1.30494,-1.37728 -0.17417,-0.0984 -0.32498,-0.23634 -0.49995,-0.33471 -2.4908,-1.31774 -5.19219,1.14119 -5.06194,2.65618 z m -0.42497,11.39209 c 0,3.61555 0.14899,8.24794 0.14899,11.35299 0.0122,0.62882 -0.11322,1.30055 -0.25014,1.86909 -0.10422,1.87263 -1.98706,3.15707 -3.2939,4.75926 l 13.00724,0.069 c -1.23571,-1.37854 -2.65914,-2.91471 -2.67155,-4.61188 0,-4.10388 0.47186,-8.34847 0.35116,-12.47423 0.0122,-1.89547 -0.2971,-3.57569 -0.87784,-5.31234 -0.42112,-0.95736 -0.99145,-2.27243 -2.28026,-2.34145 -2.51155,-0.13442 -3.90028,4.83855 -4.1337,6.68961 z"
       id="path5241"
       inkscape:label="i"
       inkscape:connector-curvature="0"
       style="fill:#005544;stroke-width:0.22203755"
       sodipodi:nodetypes="cccccccccccccccccccsc" />
  </g>
</svg>
